# Blender v2.77 (sub 0) OBJ File: ''
# www.blender.org
o Cylinder
v 0.000000 -1.000000 -1.000000
v 0.000000 1.000000 -1.000000
v 0.195090 1.000000 -0.980785
v 0.195090 -1.000000 -0.980785
v 0.382683 1.000000 -0.923880
v 0.382683 -1.000000 -0.923880
v 0.555570 1.000000 -0.831470
v 0.555570 -1.000000 -0.831470
v 0.707107 1.000000 -0.707107
v 0.707107 -1.000000 -0.707107
v 0.831470 1.000000 -0.555570
v 0.831470 -1.000000 -0.555570
v 0.923880 1.000000 -0.382683
v 0.923880 -1.000000 -0.382683
v 0.980785 1.000000 -0.195090
v 0.980785 -1.000000 -0.195090
v 1.000000 1.000000 0.000000
v 1.000000 -1.000000 -0.000000
v 0.980785 1.000000 0.195090
v 0.980785 -1.000000 0.195090
v 0.923880 1.000000 0.382683
v 0.923880 -1.000000 0.382683
v 0.831470 1.000000 0.555570
v 0.831470 -1.000000 0.555570
v 0.707107 1.000000 0.707107
v 0.707107 -1.000000 0.707107
v 0.555570 1.000000 0.831470
v 0.555570 -1.000000 0.831470
v 0.382683 1.000000 0.923880
v 0.382683 -1.000000 0.923880
v 0.195090 1.000000 0.980785
v 0.195090 -1.000000 0.980785
v 0.000000 1.000000 1.000000
v 0.000000 -1.000000 1.000000
v -0.195091 1.000000 0.980785
v -0.195091 -1.000000 0.980785
v -0.382684 1.000000 0.923879
v -0.382684 -1.000000 0.923879
v -0.555571 1.000000 0.831469
v -0.555571 -1.000000 0.831469
v -0.707107 1.000000 0.707106
v -0.707107 -1.000000 0.707106
v -0.831470 1.000000 0.555570
v -0.831470 -1.000000 0.555570
v -0.923880 1.000000 0.382683
v -0.923880 -1.000000 0.382683
v -0.980785 1.000000 0.195089
v -0.980785 -1.000000 0.195089
v -1.000000 1.000000 -0.000001
v -1.000000 -1.000000 -0.000001
v -0.980785 1.000000 -0.195091
v -0.980785 -1.000000 -0.195091
v -0.923879 1.000000 -0.382684
v -0.923879 -1.000000 -0.382684
v -0.831469 1.000000 -0.555571
v -0.831469 -1.000000 -0.555571
v -0.707106 1.000000 -0.707108
v -0.707106 -1.000000 -0.707108
v -0.555569 1.000000 -0.831470
v -0.555569 -1.000000 -0.831470
v -0.382682 1.000000 -0.923880
v -0.382682 -1.000000 -0.923880
v -0.195089 1.000000 -0.980786
v -0.195089 -1.000000 -0.980786
v 0.000000 -0.990502 -0.989918
v 0.000000 0.990503 -0.989918
v 0.193123 0.990503 -0.970897
v 0.193123 -0.990502 -0.970897
v 0.378825 0.990503 -0.914565
v 0.378825 -0.990503 -0.914566
v 0.549969 0.990503 -0.823087
v 0.549969 -0.990502 -0.823087
v 0.699978 0.990502 -0.699978
v 0.699978 -0.990502 -0.699978
v 0.823087 0.990503 -0.549969
v 0.823087 -0.990502 -0.549969
v 0.914566 0.990503 -0.378825
v 0.914566 -0.990503 -0.378825
v 0.970897 0.990503 -0.193123
v 0.970897 -0.990503 -0.193123
v 0.989918 0.990502 0.000000
v 0.989918 -0.990502 -0.000000
v 0.970897 0.990503 0.193123
v 0.970897 -0.990503 0.193123
v 0.914566 0.990503 0.378825
v 0.914566 -0.990503 0.378825
v 0.823087 0.990502 0.549969
v 0.823087 -0.990503 0.549969
v 0.699978 0.990502 0.699978
v 0.699978 -0.990502 0.699978
v 0.549969 0.990502 0.823087
v 0.549969 -0.990503 0.823087
v 0.378825 0.990503 0.914566
v 0.378825 -0.990503 0.914565
v 0.193123 0.990502 0.970897
v 0.193123 -0.990503 0.970897
v 0.000000 0.990502 0.989918
v 0.000000 -0.990503 0.989918
v -0.193124 0.990502 0.970897
v -0.193124 -0.990503 0.970897
v -0.378826 0.990503 0.914565
v -0.378826 -0.990503 0.914564
v -0.549970 0.990502 0.823086
v -0.549970 -0.990503 0.823086
v -0.699978 0.990502 0.699977
v -0.699978 -0.990502 0.699977
v -0.823087 0.990502 0.549969
v -0.823087 -0.990503 0.549969
v -0.914566 0.990503 0.378825
v -0.914566 -0.990503 0.378825
v -0.970897 0.990502 0.193123
v -0.970897 -0.990503 0.193122
v -0.989918 0.990502 -0.000001
v -0.989918 -0.990502 -0.000001
v -0.970897 0.990503 -0.193124
v -0.970897 -0.990503 -0.193124
v -0.914565 0.990503 -0.378826
v -0.914565 -0.990503 -0.378826
v -0.823086 0.990503 -0.549970
v -0.823086 -0.990502 -0.549970
v -0.699977 0.990503 -0.699979
v -0.699977 -0.990502 -0.699979
v -0.549968 0.990503 -0.823087
v -0.549968 -0.990502 -0.823087
v -0.378824 0.990503 -0.914565
v -0.378824 -0.990503 -0.914566
v -0.193122 0.990503 -0.970898
v -0.193122 -0.990502 -0.970898
vn 0.0980 0.0000 -0.9952
vn 0.2903 0.0000 -0.9569
vn 0.4714 0.0000 -0.8819
vn 0.6344 0.0000 -0.7730
vn 0.7730 0.0000 -0.6344
vn 0.8819 0.0000 -0.4714
vn 0.9569 0.0000 -0.2903
vn 0.9952 -0.0000 -0.0980
vn 0.9952 -0.0000 0.0980
vn 0.9569 -0.0000 0.2903
vn 0.8819 -0.0000 0.4714
vn 0.7730 -0.0000 0.6344
vn 0.6344 -0.0000 0.7730
vn 0.4714 -0.0000 0.8819
vn 0.2903 -0.0000 0.9569
vn 0.0980 -0.0000 0.9952
vn -0.0980 -0.0000 0.9952
vn -0.2903 -0.0000 0.9569
vn -0.4714 -0.0000 0.8819
vn -0.6344 -0.0000 0.7730
vn -0.7730 -0.0000 0.6344
vn -0.8819 -0.0000 0.4714
vn -0.9569 -0.0000 0.2903
vn -0.9952 0.0000 0.0980
vn -0.9952 0.0000 -0.0980
vn -0.9569 0.0000 -0.2903
vn -0.8819 0.0000 -0.4714
vn -0.7730 0.0000 -0.6344
vn -0.6344 0.0000 -0.7730
vn -0.4714 0.0000 -0.8819
vn -0.0000 1.0000 0.0000
vn -0.2903 0.0000 -0.9569
vn -0.0980 0.0000 -0.9952
vn 0.0000 -1.0000 -0.0000
usemtl None
s 1
f 1//1 2//1 3//1 4//1
f 4//2 3//2 5//2 6//2
f 6//3 5//3 7//3 8//3
f 8//4 7//4 9//4 10//4
f 10//5 9//5 11//5 12//5
f 12//6 11//6 13//6 14//6
f 14//7 13//7 15//7 16//7
f 16//8 15//8 17//8 18//8
f 18//9 17//9 19//9 20//9
f 20//10 19//10 21//10 22//10
f 22//11 21//11 23//11 24//11
f 24//12 23//12 25//12 26//12
f 26//13 25//13 27//13 28//13
f 28//14 27//14 29//14 30//14
f 30//15 29//15 31//15 32//15
f 32//16 31//16 33//16 34//16
f 34//17 33//17 35//17 36//17
f 36//18 35//18 37//18 38//18
f 38//19 37//19 39//19 40//19
f 40//20 39//20 41//20 42//20
f 42//21 41//21 43//21 44//21
f 44//22 43//22 45//22 46//22
f 46//23 45//23 47//23 48//23
f 48//24 47//24 49//24 50//24
f 50//25 49//25 51//25 52//25
f 52//26 51//26 53//26 54//26
f 54//27 53//27 55//27 56//27
f 56//28 55//28 57//28 58//28
f 58//29 57//29 59//29 60//29
f 60//30 59//30 61//30 62//30
f 3//31 2//31 63//31 61//31 59//31 57//31 55//31 53//31 51//31 49//31 47//31 45//31 43//31 41//31 39//31 37//31 35//31 33//31 31//31 29//31 27//31 25//31 23//31 21//31 19//31 17//31 15//31 13//31 11//31 9//31 7//31 5//31
f 62//32 61//32 63//32 64//32
f 64//33 63//33 2//33 1//33
f 1//34 4//34 6//34 8//34 10//34 12//34 14//34 16//34 18//34 20//34 22//34 24//34 26//34 28//34 30//34 32//34 34//34 36//34 38//34 40//34 42//34 44//34 46//34 48//34 50//34 52//34 54//34 56//34 58//34 60//34 62//34 64//34
f 68//17 67//17 66//17 65//17
f 70//18 69//18 67//18 68//18
f 72//19 71//19 69//19 70//19
f 74//20 73//20 71//20 72//20
f 76//21 75//21 73//21 74//21
f 78//22 77//22 75//22 76//22
f 80//23 79//23 77//23 78//23
f 82//24 81//24 79//24 80//24
f 84//25 83//25 81//25 82//25
f 86//26 85//26 83//26 84//26
f 88//27 87//27 85//27 86//27
f 90//28 89//28 87//28 88//28
f 92//29 91//29 89//29 90//29
f 94//30 93//30 91//30 92//30
f 96//32 95//32 93//32 94//32
f 98//33 97//33 95//33 96//33
f 100//1 99//1 97//1 98//1
f 102//2 101//2 99//2 100//2
f 104//3 103//3 101//3 102//3
f 106//4 105//4 103//4 104//4
f 108//5 107//5 105//5 106//5
f 110//6 109//6 107//6 108//6
f 112//7 111//7 109//7 110//7
f 114//8 113//8 111//8 112//8
f 116//9 115//9 113//9 114//9
f 118//10 117//10 115//10 116//10
f 120//11 119//11 117//11 118//11
f 122//12 121//12 119//12 120//12
f 124//13 123//13 121//13 122//13
f 126//14 125//14 123//14 124//14
f 69//34 71//34 73//34 75//34 77//34 79//34 81//34 83//34 85//34 87//34 89//34 91//34 93//34 95//34 97//34 99//34 101//34 103//34 105//34 107//34 109//34 111//34 113//34 115//34 117//34 119//34 121//34 123//34 125//34 127//34 66//34 67//34
f 128//15 127//15 125//15 126//15
f 65//16 66//16 127//16 128//16
f 128//31 126//31 124//31 122//31 120//31 118//31 116//31 114//31 112//31 110//31 108//31 106//31 104//31 102//31 100//31 98//31 96//31 94//31 92//31 90//31 88//31 86//31 84//31 82//31 80//31 78//31 76//31 74//31 72//31 70//31 68//31 65//31
